<?xml version="1.0" encoding="UTF-8" standalone="no"?>
<!DOCTYPE svg PUBLIC "-//W3C//DTD SVG 1.1//EN" "http://www.w3.org/Graphics/SVG/1.1/DTD/svg11.dtd">
<svg width="100%" height="100%" viewBox="0 0 1684 1292" version="1.1" xmlns="http://www.w3.org/2000/svg" xmlns:xlink="http://www.w3.org/1999/xlink" xml:space="preserve" xmlns:serif="http://www.serif.com/" style="fill-rule:evenodd;clip-rule:evenodd;stroke-linejoin:round;stroke-miterlimit:2;">
    <g transform="matrix(4.16667,0,0,4.16667,0,0)">
        <path d="M271.084,119.287L271.084,143.869L295.667,143.869L271.084,119.287Z" style="fill:rgb(250,163,49);fill-rule:nonzero;"/>
        <path d="M122.039,228.753C90.227,228.753 70.774,210.987 70.774,176.135L70.774,108.459L96.831,108.459L96.831,175.455C96.831,194.745 106.47,204.724 122.379,204.724C138.281,204.724 147.926,195.085 147.926,176.299L147.926,108.459L173.982,108.459L173.982,175.286C173.982,211.158 153.85,228.753 122.039,228.753Z" style="fill:rgb(23,23,28);fill-rule:nonzero;"/>
        <path d="M309.732,167.002C309.732,201.122 282.072,228.782 247.952,228.782C213.832,228.782 186.172,201.122 186.172,167.002C186.172,132.882 213.832,105.222 247.952,105.222L247.952,131.282C228.252,131.282 212.232,147.302 212.232,167.002C212.232,186.702 228.252,202.722 247.952,202.722C267.652,202.722 283.672,186.702 283.672,167.002L309.732,167.002Z" style="fill:rgb(23,23,28);fill-rule:nonzero;"/>
        <path d="M332.85,143.869L306.79,143.869C306.79,124.169 290.77,108.149 271.07,108.149L271.07,82.09C305.19,82.09 332.85,109.749 332.85,143.869Z" style="fill:rgb(250,166,25);fill-rule:nonzero;"/>
    </g>
</svg>
