<?xml version="1.0" encoding="UTF-8" standalone="no"?>
<!DOCTYPE svg PUBLIC "-//W3C//DTD SVG 1.1//EN" "http://www.w3.org/Graphics/SVG/1.1/DTD/svg11.dtd">
<svg width="100%" height="100%" viewBox="0 0 3909 1130" version="1.1" xmlns="http://www.w3.org/2000/svg" xmlns:xlink="http://www.w3.org/1999/xlink" xml:space="preserve" xmlns:serif="http://www.serif.com/" style="fill-rule:evenodd;clip-rule:evenodd;stroke-linejoin:round;stroke-miterlimit:2;">
    <g transform="matrix(4.16667,0,0,4.16667,0,0)">
        <path d="M262.09,99.74L262.09,124.322L286.673,124.322L262.09,99.74Z" style="fill:rgb(250,166,25);fill-rule:nonzero;"/>
        <path d="M113.045,209.206C81.233,209.206 61.78,191.44 61.78,156.589L61.78,88.912L87.837,88.912L87.837,155.908C87.837,175.198 97.476,185.177 113.385,185.177C129.287,185.177 138.932,175.538 138.932,156.752L138.932,88.912L164.988,88.912L164.988,155.739C164.988,191.611 144.855,209.206 113.045,209.206Z" style="fill:white;fill-rule:nonzero;"/>
        <path d="M300.738,147.455C300.738,181.575 273.078,209.235 238.958,209.235C204.838,209.235 177.178,181.575 177.178,147.455C177.178,113.335 204.838,85.675 238.958,85.675L238.958,111.735C219.258,111.735 203.238,127.755 203.238,147.455C203.238,167.155 219.258,183.175 238.958,183.175C258.657,183.175 274.678,167.155 274.678,147.455L300.738,147.455Z" style="fill:white;fill-rule:nonzero;"/>
        <path d="M323.856,124.322L297.796,124.322C297.796,104.622 281.776,88.603 262.075,88.603L262.075,62.543C296.196,62.543 323.856,90.203 323.856,124.322Z" style="fill:rgb(250,166,25);fill-rule:nonzero;"/>
        <path d="M361.589,115.761L361.589,88.33L369.961,88.33L369.961,115.42C369.961,124.27 374.522,128.966 382.009,128.966C389.429,128.966 393.99,124.542 393.99,115.761L393.99,88.33L402.363,88.33L402.363,115.353C402.363,129.579 394.33,136.726 381.873,136.726C369.485,136.726 361.589,129.579 361.589,115.761Z" style="fill:white;fill-rule:nonzero;"/>
        <path d="M413.862,88.33L421.621,88.33L447.148,121.274L447.148,88.33L455.384,88.33L455.384,135.978L448.372,135.978L422.098,102.079L422.098,135.978L413.862,135.978L413.862,88.33Z" style="fill:white;fill-rule:nonzero;"/>
        <rect x="468.109" y="88.33" width="8.372" height="47.648" style="fill:white;fill-rule:nonzero;"/>
        <path d="M485.122,88.33L494.38,88.33L508.743,124.95L523.037,88.33L532.091,88.33L512.351,136.318L504.931,136.318L485.122,88.33Z" style="fill:white;fill-rule:nonzero;"/>
        <path d="M540.255,88.33L575.583,88.33L575.583,95.817L548.628,95.817L548.628,108.205L572.521,108.205L572.521,115.693L548.628,115.693L548.628,128.49L575.923,128.49L575.923,135.978L540.255,135.978L540.255,88.33Z" style="fill:white;fill-rule:nonzero;"/>
        <path d="M606.484,111.949C612.474,111.949 616.285,108.818 616.285,103.985L616.285,103.849C616.285,98.744 612.61,95.953 606.415,95.953L594.232,95.953L594.232,111.949L606.484,111.949ZM585.859,88.33L607.096,88.33C613.086,88.33 617.782,90.099 620.846,93.094C623.365,95.681 624.794,99.221 624.794,103.372L624.794,103.508C624.794,111.336 620.097,116.033 613.494,117.939L626.36,135.978L616.421,135.978L604.714,119.369L594.232,119.369L594.232,135.978L585.859,135.978L585.859,88.33Z" style="fill:white;fill-rule:nonzero;"/>
        <path d="M631.868,129.035L636.906,123.044C641.467,126.992 646.095,129.239 651.949,129.239C657.122,129.239 660.39,126.788 660.39,123.249L660.39,123.112C660.39,119.709 658.484,117.871 649.635,115.829C639.493,113.378 633.775,110.383 633.775,101.603L633.775,101.466C633.775,93.298 640.581,87.649 650.044,87.649C656.987,87.649 662.5,89.759 667.333,93.639L662.841,99.969C658.552,96.77 654.264,95.068 649.907,95.068C645.007,95.068 642.148,97.587 642.148,100.718L642.148,100.854C642.148,104.529 644.325,106.163 653.515,108.341C663.589,110.792 668.763,114.399 668.763,122.295L668.763,122.432C668.763,131.349 661.751,136.658 651.745,136.658C644.462,136.658 637.587,134.14 631.868,129.035Z" style="fill:white;fill-rule:nonzero;"/>
        <rect x="679.106" y="88.33" width="8.372" height="47.648" style="fill:white;fill-rule:nonzero;"/>
        <path d="M711.913,96.089L696.802,96.089L696.802,88.33L735.465,88.33L735.465,96.089L720.354,96.089L720.354,135.978L711.913,135.978L711.913,96.089Z" style="fill:white;fill-rule:nonzero;"/>
        <path d="M758.332,117.19L739.409,88.33L749.347,88.33L762.62,109.362L776.099,88.33L785.697,88.33L766.773,116.986L766.773,135.978L758.332,135.978L758.332,117.19Z" style="fill:white;fill-rule:nonzero;"/>
        <path d="M401.273,184.29L401.273,184.153C401.273,174.896 394.534,167.204 385.073,167.204C375.611,167.204 369.008,174.76 369.008,184.017L369.008,184.153C369.008,193.411 375.747,201.035 385.208,201.035C394.671,201.035 401.273,193.547 401.273,184.29ZM360.228,184.29L360.228,184.153C360.228,170.744 370.573,159.512 385.208,159.512C399.843,159.512 410.054,170.607 410.054,184.017L410.054,184.153C410.054,197.563 399.708,208.794 385.073,208.794C370.438,208.794 360.228,197.699 360.228,184.29Z" style="fill:white;fill-rule:nonzero;"/>
        <path d="M420.192,160.329L455.656,160.329L455.656,167.953L428.564,167.953L428.564,180.954L452.593,180.954L452.593,188.578L428.564,188.578L428.564,207.978L420.192,207.978L420.192,160.329Z" style="fill:white;fill-rule:nonzero;"/>
        <path d="M524.195,184.29L524.195,184.153C524.195,174.896 517.456,167.204 507.994,167.204C498.532,167.204 491.93,174.76 491.93,184.017L491.93,184.153C491.93,193.411 498.669,201.035 508.13,201.035C517.593,201.035 524.195,193.547 524.195,184.29ZM483.15,184.29L483.15,184.153C483.15,170.744 493.495,159.512 508.13,159.512C522.765,159.512 532.976,170.607 532.976,184.017L532.976,184.153C532.976,197.563 522.63,208.794 507.994,208.794C493.36,208.794 483.15,197.699 483.15,184.29Z" style="fill:white;fill-rule:nonzero;"/>
        <path d="M561.22,185.106C567.55,185.106 571.498,181.566 571.498,176.598L571.498,176.461C571.498,170.88 567.482,167.953 561.22,167.953L551.486,167.953L551.486,185.106L561.22,185.106ZM543.114,160.329L561.901,160.329C573.064,160.329 580.007,166.659 580.007,176.257L580.007,176.394C580.007,187.08 571.431,192.662 560.948,192.662L551.486,192.662L551.486,207.978L543.114,207.978L543.114,160.329Z" style="fill:white;fill-rule:nonzero;"/>
        <path d="M627.517,184.29L627.517,184.153C627.517,174.896 620.778,167.204 611.316,167.204C601.855,167.204 595.251,174.76 595.251,184.017L595.251,184.153C595.251,193.411 601.99,201.035 611.452,201.035C620.913,201.035 627.517,193.547 627.517,184.29ZM586.47,184.29L586.47,184.153C586.47,170.744 596.818,159.512 611.452,159.512C626.087,159.512 636.297,170.607 636.297,184.017L636.297,184.153C636.297,197.563 625.95,208.794 611.316,208.794C596.681,208.794 586.47,197.699 586.47,184.29Z" style="fill:white;fill-rule:nonzero;"/>
        <path d="M646.435,160.329L654.808,160.329L654.808,200.354L679.857,200.354L679.857,207.978L646.435,207.978L646.435,160.329Z" style="fill:white;fill-rule:nonzero;"/>
        <path d="M688.566,160.329L723.894,160.329L723.894,167.816L696.939,167.816L696.939,180.205L720.83,180.205L720.83,187.693L696.939,187.693L696.939,200.49L724.234,200.49L724.234,207.978L688.566,207.978L688.566,160.329Z" style="fill:white;fill-rule:nonzero;"/>
    </g>
</svg>
