<?xml version="1.0" encoding="UTF-8" standalone="no"?>
<!DOCTYPE svg PUBLIC "-//W3C//DTD SVG 1.1//EN" "http://www.w3.org/Graphics/SVG/1.1/DTD/svg11.dtd">
<svg width="100%" height="100%" viewBox="0 0 2109 1613" version="1.1" xmlns="http://www.w3.org/2000/svg" xmlns:xlink="http://www.w3.org/1999/xlink" xml:space="preserve" xmlns:serif="http://www.serif.com/" style="fill-rule:evenodd;clip-rule:evenodd;stroke-linejoin:round;stroke-miterlimit:2;">
    <g transform="matrix(4.16667,0,0,4.16667,0,0)">
        <path d="M262.09,99.047L262.09,123.629L286.673,123.629L262.09,99.047Z" style="fill:rgb(250,166,25);fill-rule:nonzero;"/>
        <path d="M113.045,208.512C81.233,208.512 61.78,190.746 61.78,155.895L61.78,88.219L87.837,88.219L87.837,155.215C87.837,174.504 97.475,184.483 113.385,184.483C129.287,184.483 138.932,174.844 138.932,156.058L138.932,88.219L164.988,88.219L164.988,155.045C164.988,190.917 144.855,208.512 113.045,208.512Z" style="fill:white;fill-rule:nonzero;"/>
        <path d="M300.738,146.761C300.738,180.881 273.077,208.541 238.958,208.541C204.837,208.541 177.177,180.881 177.177,146.761C177.177,112.641 204.837,84.982 238.958,84.982L238.958,111.041C219.257,111.041 203.238,127.061 203.238,146.761C203.238,166.461 219.257,182.481 238.958,182.481C258.657,182.481 274.677,166.461 274.677,146.761L300.738,146.761Z" style="fill:white;fill-rule:nonzero;"/>
        <path d="M323.856,123.629L297.796,123.629C297.796,103.929 281.776,87.909 262.075,87.909L262.075,61.849C296.196,61.849 323.856,89.509 323.856,123.629Z" style="fill:rgb(250,166,25);fill-rule:nonzero;"/>
        <path d="M65.718,257.699L65.718,237.609L71.848,237.609L71.848,257.451C71.848,263.931 75.189,267.37 80.673,267.37C86.106,267.37 89.446,264.13 89.446,257.699L89.446,237.609L95.578,237.609L95.578,257.4C95.578,267.819 89.695,273.053 80.573,273.053C71.5,273.053 65.718,267.819 65.718,257.699Z" style="fill:white;fill-rule:nonzero;"/>
        <path d="M103.997,237.609L109.681,237.609L128.373,261.737L128.373,237.609L134.406,237.609L134.406,272.505L129.272,272.505L110.03,247.679L110.03,272.505L103.997,272.505L103.997,237.609Z" style="fill:white;fill-rule:nonzero;"/>
        <rect x="143.723" y="237.609" width="6.131" height="34.896" style="fill:white;fill-rule:nonzero;"/>
        <path d="M156.182,237.609L162.962,237.609L173.481,264.429L183.949,237.609L190.579,237.609L176.122,272.754L170.689,272.754L156.182,237.609Z" style="fill:white;fill-rule:nonzero;"/>
        <path d="M196.556,237.609L222.429,237.609L222.429,243.093L202.688,243.093L202.688,252.166L220.185,252.166L220.185,257.65L202.688,257.65L202.688,267.022L222.678,267.022L222.678,272.505L196.556,272.505L196.556,237.609Z" style="fill:white;fill-rule:nonzero;"/>
        <path d="M245.056,254.908C249.444,254.908 252.235,252.615 252.235,249.075L252.235,248.976C252.235,245.237 249.543,243.193 245.006,243.193L236.083,243.193L236.083,254.908L245.056,254.908ZM229.951,237.609L245.505,237.609C249.892,237.609 253.331,238.906 255.574,241.099C257.419,242.993 258.466,245.586 258.466,248.627L258.466,248.726C258.466,254.459 255.027,257.899 250.191,259.296L259.613,272.505L252.334,272.505L243.76,260.341L236.083,260.341L236.083,272.505L229.951,272.505L229.951,237.609Z" style="fill:white;fill-rule:nonzero;"/>
        <path d="M263.645,267.42L267.333,263.033C270.674,265.925 274.064,267.57 278.351,267.57C282.139,267.57 284.532,265.775 284.532,263.183L284.532,263.083C284.532,260.591 283.136,259.245 276.656,257.749C269.228,255.955 265.04,253.761 265.04,247.331L265.04,247.231C265.04,241.249 270.026,237.111 276.955,237.111C282.039,237.111 286.077,238.656 289.616,241.498L286.326,246.134C283.186,243.791 280.045,242.545 276.855,242.545C273.266,242.545 271.172,244.389 271.172,246.682L271.172,246.782C271.172,249.474 272.768,250.671 279.497,252.266C286.875,254.06 290.663,256.702 290.663,262.485L290.663,262.585C290.663,269.115 285.53,273.004 278.201,273.004C272.867,273.004 267.832,271.159 263.645,267.42Z" style="fill:white;fill-rule:nonzero;"/>
        <rect x="298.238" y="237.609" width="6.13" height="34.896" style="fill:white;fill-rule:nonzero;"/>
        <path d="M322.262,243.293L311.196,243.293L311.196,237.609L339.511,237.609L339.511,243.293L328.444,243.293L328.444,272.505L322.262,272.505L322.262,243.293Z" style="fill:white;fill-rule:nonzero;"/>
        <path d="M356.255,258.746L342.397,237.609L349.675,237.609L359.396,253.013L369.266,237.609L376.295,237.609L362.437,258.598L362.437,272.505L356.255,272.505L356.255,258.746Z" style="fill:white;fill-rule:nonzero;"/>
        <path d="M94.78,307.883L94.78,307.783C94.78,301.004 89.845,295.371 82.916,295.371C75.986,295.371 71.151,300.904 71.151,307.684L71.151,307.783C71.151,314.563 76.086,320.146 83.015,320.146C89.944,320.146 94.78,314.663 94.78,307.883ZM64.72,307.883L64.72,307.783C64.72,297.963 72.298,289.737 83.015,289.737C93.733,289.737 101.211,297.863 101.211,307.684L101.211,307.783C101.211,317.604 93.634,325.829 82.916,325.829C72.198,325.829 64.72,317.704 64.72,307.883Z" style="fill:white;fill-rule:nonzero;"/>
        <path d="M108.633,290.336L134.606,290.336L134.606,295.919L114.765,295.919L114.765,305.441L132.363,305.441L132.363,311.024L114.765,311.024L114.765,325.231L108.633,325.231L108.633,290.336Z" style="fill:white;fill-rule:nonzero;"/>
        <path d="M184.797,307.883L184.797,307.783C184.797,301.004 179.862,295.371 172.933,295.371C166.003,295.371 161.168,300.904 161.168,307.684L161.168,307.783C161.168,314.563 166.103,320.146 173.032,320.146C179.961,320.146 184.797,314.663 184.797,307.883ZM154.738,307.883L154.738,307.783C154.738,297.963 162.315,289.737 173.032,289.737C183.75,289.737 191.228,297.863 191.228,307.684L191.228,307.783C191.228,317.604 183.651,325.829 172.933,325.829C162.215,325.829 154.738,317.704 154.738,307.883Z" style="fill:white;fill-rule:nonzero;"/>
        <path d="M211.909,308.482C216.545,308.482 219.437,305.889 219.437,302.25L219.437,302.15C219.437,298.063 216.495,295.919 211.909,295.919L204.781,295.919L204.781,308.482L211.909,308.482ZM198.649,290.336L212.407,290.336C220.583,290.336 225.668,294.972 225.668,302.001L225.668,302.101C225.668,309.927 219.387,314.015 211.71,314.015L204.781,314.015L204.781,325.231L198.649,325.231L198.649,290.336Z" style="fill:white;fill-rule:nonzero;"/>
        <path d="M260.459,307.883L260.459,307.783C260.459,301.004 255.524,295.371 248.595,295.371C241.665,295.371 236.83,300.904 236.83,307.684L236.83,307.783C236.83,314.563 241.765,320.146 248.695,320.146C255.623,320.146 260.459,314.663 260.459,307.883ZM230.4,307.883L230.4,307.783C230.4,297.963 237.977,289.737 248.695,289.737C259.411,289.737 266.89,297.863 266.89,307.684L266.89,307.783C266.89,317.604 259.312,325.829 248.595,325.829C237.877,325.829 230.4,317.704 230.4,307.883Z" style="fill:white;fill-rule:nonzero;"/>
        <path d="M274.311,290.336L280.443,290.336L280.443,319.648L298.787,319.648L298.787,325.231L274.311,325.231L274.311,290.336Z" style="fill:white;fill-rule:nonzero;"/>
        <path d="M305.164,290.336L331.037,290.336L331.037,295.819L311.296,295.819L311.296,304.892L328.793,304.892L328.793,310.376L311.296,310.376L311.296,319.748L331.286,319.748L331.286,325.231L305.164,325.231L305.164,290.336Z" style="fill:white;fill-rule:nonzero;"/>
    </g>
</svg>
