<?xml version="1.0" encoding="UTF-8" standalone="no"?>
<!DOCTYPE svg PUBLIC "-//W3C//DTD SVG 1.1//EN" "http://www.w3.org/Graphics/SVG/1.1/DTD/svg11.dtd">
<svg width="100%" height="100%" viewBox="0 0 3909 1130" version="1.1" xmlns="http://www.w3.org/2000/svg" xmlns:xlink="http://www.w3.org/1999/xlink" xml:space="preserve" xmlns:serif="http://www.serif.com/" style="fill-rule:evenodd;clip-rule:evenodd;stroke-linejoin:round;stroke-miterlimit:2;">
    <g transform="matrix(4.16667,0,0,4.16667,0,0)">
        <path d="M262.09,99.74L262.09,124.322L286.673,124.322L262.09,99.74Z" style="fill:rgb(250,166,25);fill-rule:nonzero;"/>
        <path d="M113.045,209.206C81.233,209.206 61.78,191.44 61.78,156.589L61.78,88.912L87.837,88.912L87.837,155.908C87.837,175.198 97.476,185.177 113.385,185.177C129.287,185.177 138.932,175.538 138.932,156.752L138.932,88.912L164.988,88.912L164.988,155.739C164.988,191.611 144.856,209.206 113.045,209.206Z" style="fill:rgb(23,23,28);fill-rule:nonzero;"/>
        <path d="M300.738,147.455C300.738,181.575 273.078,209.235 238.958,209.235C204.838,209.235 177.178,181.575 177.178,147.455C177.178,113.335 204.838,85.675 238.958,85.675L238.958,111.735C219.258,111.735 203.238,127.755 203.238,147.455C203.238,167.155 219.258,183.175 238.958,183.175C258.657,183.175 274.678,167.155 274.678,147.455L300.738,147.455Z" style="fill:rgb(23,23,28);fill-rule:nonzero;"/>
        <path d="M323.856,124.322L297.796,124.322C297.796,104.622 281.776,88.603 262.075,88.603L262.075,62.543C296.196,62.543 323.856,90.203 323.856,124.322Z" style="fill:rgb(250,166,25);fill-rule:nonzero;"/>
        <path d="M362.064,115.761L362.064,88.33L370.436,88.33L370.436,115.42C370.436,124.27 374.997,128.966 382.485,128.966C389.904,128.966 394.465,124.542 394.465,115.761L394.465,88.33L402.837,88.33L402.837,115.353C402.837,129.579 394.805,136.726 382.348,136.726C369.96,136.726 362.064,129.579 362.064,115.761Z" style="fill:rgb(17,21,23);fill-rule:nonzero;"/>
        <path d="M414.337,88.33L422.096,88.33L447.622,121.274L447.622,88.33L455.859,88.33L455.859,135.978L448.848,135.978L422.573,102.079L422.573,135.978L414.337,135.978L414.337,88.33Z" style="fill:rgb(17,21,23);fill-rule:nonzero;"/>
        <rect x="468.583" y="88.33" width="8.373" height="47.648" style="fill:rgb(17,21,23);fill-rule:nonzero;"/>
        <path d="M485.598,88.33L494.855,88.33L509.218,124.95L523.512,88.33L532.566,88.33L512.826,136.318L505.406,136.318L485.598,88.33Z" style="fill:rgb(17,21,23);fill-rule:nonzero;"/>
        <path d="M540.731,88.33L576.058,88.33L576.058,95.817L549.103,95.817L549.103,108.205L572.995,108.205L572.995,115.693L549.103,115.693L549.103,128.49L576.399,128.49L576.399,135.978L540.731,135.978L540.731,88.33Z" style="fill:rgb(17,21,23);fill-rule:nonzero;"/>
        <path d="M606.959,111.949C612.948,111.949 616.76,108.818 616.76,103.985L616.76,103.849C616.76,98.744 613.085,95.953 606.89,95.953L594.706,95.953L594.706,111.949L606.959,111.949ZM586.334,88.33L607.571,88.33C613.561,88.33 618.258,90.099 621.321,93.094C623.84,95.681 625.269,99.221 625.269,103.372L625.269,103.508C625.269,111.336 620.573,116.033 613.969,117.939L626.835,135.978L616.897,135.978L605.189,119.369L594.706,119.369L594.706,135.978L586.334,135.978L586.334,88.33Z" style="fill:rgb(17,21,23);fill-rule:nonzero;"/>
        <path d="M632.344,129.035L637.382,123.044C641.942,126.992 646.571,129.239 652.425,129.239C657.598,129.239 660.865,126.788 660.865,123.249L660.865,123.112C660.865,119.709 658.959,117.871 650.11,115.829C639.968,113.378 634.25,110.383 634.25,101.603L634.25,101.466C634.25,93.298 641.057,87.649 650.519,87.649C657.462,87.649 662.975,89.759 667.808,93.639L663.316,99.969C659.028,96.77 654.739,95.068 650.383,95.068C645.482,95.068 642.623,97.587 642.623,100.718L642.623,100.854C642.623,104.529 644.801,106.163 653.99,108.341C664.065,110.792 669.238,114.399 669.238,122.295L669.238,122.432C669.238,131.349 662.227,136.658 652.22,136.658C644.937,136.658 638.062,134.14 632.344,129.035Z" style="fill:rgb(17,21,23);fill-rule:nonzero;"/>
        <rect x="679.581" y="88.33" width="8.372" height="47.648" style="fill:rgb(17,21,23);fill-rule:nonzero;"/>
        <path d="M712.388,96.089L697.277,96.089L697.277,88.33L735.94,88.33L735.94,96.089L720.829,96.089L720.829,135.978L712.388,135.978L712.388,96.089Z" style="fill:rgb(17,21,23);fill-rule:nonzero;"/>
        <path d="M758.807,117.19L739.884,88.33L749.823,88.33L763.096,109.362L776.573,88.33L786.172,88.33L767.248,116.986L767.248,135.978L758.807,135.978L758.807,117.19Z" style="fill:rgb(17,21,23);fill-rule:nonzero;"/>
        <path d="M401.748,184.29L401.748,184.153C401.748,174.896 395.01,167.204 385.548,167.204C376.086,167.204 369.483,174.76 369.483,184.017L369.483,184.153C369.483,193.411 376.222,201.035 385.684,201.035C395.146,201.035 401.748,193.547 401.748,184.29ZM360.702,184.29L360.702,184.153C360.702,170.744 371.049,159.512 385.684,159.512C400.319,159.512 410.529,170.607 410.529,184.017L410.529,184.153C410.529,197.563 400.183,208.794 385.548,208.794C370.913,208.794 360.702,197.699 360.702,184.29Z" style="fill:rgb(17,21,23);fill-rule:nonzero;"/>
        <path d="M420.667,160.329L456.131,160.329L456.131,167.953L429.039,167.953L429.039,180.954L453.068,180.954L453.068,188.578L429.039,188.578L429.039,207.978L420.667,207.978L420.667,160.329Z" style="fill:rgb(17,21,23);fill-rule:nonzero;"/>
        <path d="M524.67,184.29L524.67,184.153C524.67,174.896 517.931,167.204 508.469,167.204C499.008,167.204 492.405,174.76 492.405,184.017L492.405,184.153C492.405,193.411 499.144,201.035 508.606,201.035C518.068,201.035 524.67,193.547 524.67,184.29ZM483.624,184.29L483.624,184.153C483.624,170.744 493.971,159.512 508.606,159.512C523.24,159.512 533.451,170.607 533.451,184.017L533.451,184.153C533.451,197.563 523.104,208.794 508.469,208.794C493.835,208.794 483.624,197.699 483.624,184.29Z" style="fill:rgb(17,21,23);fill-rule:nonzero;"/>
        <path d="M561.695,185.106C568.025,185.106 571.973,181.566 571.973,176.598L571.973,176.461C571.973,170.88 567.957,167.953 561.695,167.953L551.961,167.953L551.961,185.106L561.695,185.106ZM543.589,160.329L562.376,160.329C573.539,160.329 580.482,166.659 580.482,176.257L580.482,176.394C580.482,187.08 571.906,192.662 561.423,192.662L551.961,192.662L551.961,207.978L543.589,207.978L543.589,160.329Z" style="fill:rgb(17,21,23);fill-rule:nonzero;"/>
        <path d="M627.991,184.29L627.991,184.153C627.991,174.896 621.253,167.204 611.791,167.204C602.329,167.204 595.726,174.76 595.726,184.017L595.726,184.153C595.726,193.411 602.466,201.035 611.927,201.035C621.389,201.035 627.991,193.547 627.991,184.29ZM586.946,184.29L586.946,184.153C586.946,170.744 597.292,159.512 611.927,159.512C626.562,159.512 636.772,170.607 636.772,184.017L636.772,184.153C636.772,197.563 626.426,208.794 611.791,208.794C597.156,208.794 586.946,197.699 586.946,184.29Z" style="fill:rgb(17,21,23);fill-rule:nonzero;"/>
        <path d="M646.91,160.329L655.282,160.329L655.282,200.354L680.332,200.354L680.332,207.978L646.91,207.978L646.91,160.329Z" style="fill:rgb(17,21,23);fill-rule:nonzero;"/>
        <path d="M689.041,160.329L724.368,160.329L724.368,167.816L697.413,167.816L697.413,180.205L721.305,180.205L721.305,187.693L697.413,187.693L697.413,200.49L724.709,200.49L724.709,207.978L689.041,207.978L689.041,160.329Z" style="fill:rgb(17,21,23);fill-rule:nonzero;"/>
    </g>
</svg>
