<?xml version="1.0" encoding="UTF-8" standalone="no"?>
<!DOCTYPE svg PUBLIC "-//W3C//DTD SVG 1.1//EN" "http://www.w3.org/Graphics/SVG/1.1/DTD/svg11.dtd">
<svg width="100%" height="100%" viewBox="0 0 2109 1613" version="1.1" xmlns="http://www.w3.org/2000/svg" xmlns:xlink="http://www.w3.org/1999/xlink" xml:space="preserve" xmlns:serif="http://www.serif.com/" style="fill-rule:evenodd;clip-rule:evenodd;stroke-linejoin:round;stroke-miterlimit:2;">
    <g transform="matrix(4.16667,0,0,4.16667,0,0)">
        <path d="M262.09,99.047L262.09,123.629L286.673,123.629L262.09,99.047Z" style="fill:rgb(250,166,25);fill-rule:nonzero;"/>
        <path d="M113.045,208.512C81.233,208.512 61.78,190.746 61.78,155.895L61.78,88.219L87.837,88.219L87.837,155.215C87.837,174.504 97.475,184.483 113.385,184.483C129.287,184.483 138.932,174.844 138.932,156.058L138.932,88.219L164.988,88.219L164.988,155.045C164.988,190.917 144.855,208.512 113.045,208.512Z" style="fill-rule:nonzero;"/>
        <path d="M300.738,146.761C300.738,180.881 273.078,208.541 238.958,208.541C204.838,208.541 177.177,180.881 177.177,146.761C177.177,112.641 204.838,84.982 238.958,84.982L238.958,111.041C219.257,111.041 203.238,127.061 203.238,146.761C203.238,166.461 219.257,182.481 238.958,182.481C258.657,182.481 274.677,166.461 274.677,146.761L300.738,146.761Z" style="fill-rule:nonzero;"/>
        <path d="M323.856,123.629L297.796,123.629C297.796,103.929 281.776,87.909 262.075,87.909L262.075,61.849C296.196,61.849 323.856,89.509 323.856,123.629Z" style="fill:rgb(250,166,25);fill-rule:nonzero;"/>
        <path d="M66.604,257.416L66.604,237.343L72.73,237.343L72.73,257.166C72.73,263.64 76.066,267.077 81.545,267.077C86.974,267.077 90.311,263.839 90.311,257.416L90.311,237.343L96.437,237.343L96.437,257.116C96.437,267.525 90.56,272.754 81.445,272.754C72.381,272.754 66.604,267.525 66.604,257.416Z" style="fill:rgb(17,21,23);fill-rule:nonzero;"/>
        <path d="M104.854,237.343L110.532,237.343L129.207,261.449L129.207,237.343L135.235,237.343L135.235,272.207L130.104,272.207L110.88,247.404L110.88,272.207L104.854,272.207L104.854,237.343Z" style="fill:rgb(17,21,23);fill-rule:nonzero;"/>
        <rect x="144.549" y="237.343" width="6.126" height="34.864" style="fill:rgb(17,21,23);fill-rule:nonzero;"/>
        <path d="M157,237.343L163.774,237.343L174.283,264.138L184.742,237.343L191.366,237.343L176.922,272.456L171.494,272.456L157,237.343Z" style="fill:rgb(17,21,23);fill-rule:nonzero;"/>
        <path d="M197.343,237.343L223.192,237.343L223.192,242.822L203.469,242.822L203.469,251.886L220.951,251.886L220.951,257.365L203.469,257.365L203.469,266.728L223.441,266.728L223.441,272.207L197.343,272.207L197.343,237.343Z" style="fill:rgb(17,21,23);fill-rule:nonzero;"/>
        <path d="M245.803,254.626C250.186,254.626 252.975,252.335 252.975,248.798L252.975,248.699C252.975,244.963 250.286,242.921 245.753,242.921L236.838,242.921L236.838,254.626L245.803,254.626ZM230.712,237.343L246.251,237.343C250.634,237.343 254.071,238.638 256.312,240.83C258.155,242.722 259.2,245.312 259.2,248.35L259.2,248.45C259.2,254.177 255.764,257.615 250.933,259.008L260.346,272.207L253.075,272.207L244.508,260.054L236.838,260.054L236.838,272.207L230.712,272.207L230.712,237.343Z" style="fill:rgb(17,21,23);fill-rule:nonzero;"/>
        <path d="M264.381,267.127L268.067,262.744C271.404,265.632 274.791,267.276 279.074,267.276C282.859,267.276 285.25,265.483 285.25,262.893L285.25,262.794C285.25,260.304 283.855,258.96 277.38,257.464C269.959,255.671 265.776,253.48 265.776,247.055L265.776,246.956C265.776,240.979 270.756,236.845 277.679,236.845C282.759,236.845 286.793,238.389 290.33,241.228L287.042,245.86C283.905,243.519 280.767,242.274 277.58,242.274C273.994,242.274 271.902,244.117 271.902,246.408L271.902,246.507C271.902,249.197 273.496,250.392 280.219,251.986C287.59,253.779 291.375,256.419 291.375,262.197L291.375,262.296C291.375,268.82 286.246,272.705 278.924,272.705C273.595,272.705 268.565,270.862 264.381,267.127Z" style="fill:rgb(17,21,23);fill-rule:nonzero;"/>
        <rect x="298.947" y="237.343" width="6.126" height="34.864" style="fill:rgb(17,21,23);fill-rule:nonzero;"/>
        <path d="M322.952,243.021L311.895,243.021L311.895,237.343L340.184,237.343L340.184,243.021L329.127,243.021L329.127,272.207L322.952,272.207L322.952,243.021Z" style="fill:rgb(17,21,23);fill-rule:nonzero;"/>
        <path d="M356.919,258.461L343.074,237.343L350.345,237.343L360.057,252.733L369.918,237.343L376.941,237.343L363.095,258.311L363.095,272.207L356.919,272.207L356.919,258.461Z" style="fill:rgb(17,21,23);fill-rule:nonzero;"/>
        <path d="M95.64,307.561L95.64,307.461C95.64,300.688 90.709,295.06 83.786,295.06C76.863,295.06 72.032,300.588 72.032,307.361L72.032,307.461C72.032,314.234 76.963,319.813 83.886,319.813C90.809,319.813 95.64,314.334 95.64,307.561ZM65.607,307.561L65.607,307.461C65.607,297.65 73.178,289.432 83.886,289.432C94.594,289.432 102.065,297.55 102.065,307.361L102.065,307.461C102.065,317.273 94.494,325.49 83.786,325.49C73.078,325.49 65.607,317.372 65.607,307.561Z" style="fill:rgb(17,21,23);fill-rule:nonzero;"/>
        <path d="M109.487,290.029L135.435,290.029L135.435,295.608L115.613,295.608L115.613,305.12L133.194,305.12L133.194,310.698L115.613,310.698L115.613,324.893L109.487,324.893L109.487,290.029Z" style="fill:rgb(17,21,23);fill-rule:nonzero;"/>
        <path d="M185.588,307.561L185.588,307.461C185.588,300.688 180.658,295.06 173.735,295.06C166.812,295.06 161.981,300.588 161.981,307.361L161.981,307.461C161.981,314.234 166.912,319.813 173.834,319.813C180.757,319.813 185.588,314.334 185.588,307.561ZM155.556,307.561L155.556,307.461C155.556,297.65 163.126,289.432 173.834,289.432C184.542,289.432 192.013,297.55 192.013,307.361L192.013,307.461C192.013,317.273 184.443,325.49 173.735,325.49C163.027,325.49 155.556,317.372 155.556,307.561Z" style="fill:rgb(17,21,23);fill-rule:nonzero;"/>
        <path d="M212.682,308.158C217.314,308.158 220.203,305.568 220.203,301.933L220.203,301.833C220.203,297.749 217.264,295.608 212.682,295.608L205.56,295.608L205.56,308.158L212.682,308.158ZM199.434,290.029L213.18,290.029C221.348,290.029 226.428,294.661 226.428,301.684L226.428,301.783C226.428,309.603 220.153,313.687 212.483,313.687L205.56,313.687L205.56,324.893L199.434,324.893L199.434,290.029Z" style="fill:rgb(17,21,23);fill-rule:nonzero;"/>
        <path d="M261.193,307.561L261.193,307.461C261.193,300.688 256.262,295.06 249.339,295.06C242.417,295.06 237.585,300.588 237.585,307.361L237.585,307.461C237.585,314.234 242.516,319.813 249.439,319.813C256.362,319.813 261.193,314.334 261.193,307.561ZM231.161,307.561L231.161,307.461C231.161,297.65 238.731,289.432 249.439,289.432C260.147,289.432 267.618,297.55 267.618,307.361L267.618,307.461C267.618,317.273 260.047,325.49 249.339,325.49C238.631,325.49 231.161,317.372 231.161,307.561Z" style="fill:rgb(17,21,23);fill-rule:nonzero;"/>
        <path d="M275.04,290.029L281.166,290.029L281.166,319.315L299.494,319.315L299.494,324.893L275.04,324.893L275.04,290.029Z" style="fill:rgb(17,21,23);fill-rule:nonzero;"/>
        <path d="M305.869,290.029L331.717,290.029L331.717,295.508L311.995,295.508L311.995,304.572L329.476,304.572L329.476,310.051L311.995,310.051L311.995,319.414L331.966,319.414L331.966,324.893L305.869,324.893L305.869,290.029Z" style="fill:rgb(17,21,23);fill-rule:nonzero;"/>
    </g>
</svg>
